IKResults EF3
version=1
nRows=26
nColumns=24
inDegrees=yes

Units are S.I. units (second, meters, Newtons, ...)
If the header above contains a line with 'inDegrees', this indicates whether rotational values are in degrees (yes) or radians (no).

endheader
time	pelvis_tilt	pelvis_list	pelvis_rotation	pelvis_tx	pelvis_ty	pelvis_tz	hip_flexion_r	hip_adduction_r	hip_rotation_r	knee_angle_r	ankle_angle_r	subtalar_angle_r	mtp_angle_r	hip_flexion_l	hip_adduction_l	hip_rotation_l	knee_angle_l	ankle_angle_l	subtalar_angle_l	mtp_angle_l	lumbar_extension	lumbar_bending	lumbar_rotation
      3.23000000	     -3.02008370	     -0.32889769	    -85.73701420	     -0.28520799	      0.97243284	     -4.22915458	      8.42655265	      9.49281878	      7.98528613	    -19.40573971	     10.80206963	    -15.20178305	      0.00000000	     23.14398209	     -1.77676289	      2.77140710	    -65.79997481	     -5.75853116	    -33.79389705	      0.00000000	    -14.12874530	      3.57406804	      5.19291947
      3.24000000	     -2.85183511	     -0.39943580	    -86.18541665	     -0.28592601	      0.97275201	     -4.21457566	      7.10255036	      9.52486958	      8.96065307	    -19.10059701	     11.82466499	    -15.63478219	      0.00000000	     24.43212558	     -1.67995182	      2.44830678	    -64.44995130	     -5.63947045	    -34.14039491	      0.00000000	    -14.15978274	      3.23863242	      5.53768627
      3.25000000	     -2.51978071	     -0.43236192	    -86.85156471	     -0.28678372	      0.97290280	     -4.20012749	      5.82402388	      9.30677219	      9.80244724	    -18.77392650	     12.45853307	    -15.70475682	      0.00000000	     25.51419606	     -1.51244954	      1.81209066	    -62.68445856	     -5.07274039	    -34.87459860	      0.00000000	    -14.20372014	      2.66497045	      6.47372075
      3.26000000	     -2.08118710	     -0.54576680	    -87.76528592	     -0.28738939	      0.97313928	     -4.18469534	      4.33648435	      8.84617659	     10.50600145	    -18.28203723	     12.68654085	    -15.65645382	      0.00000000	     26.22339869	     -1.32515274	      0.94092870	    -60.56386035	     -4.91617383	    -35.09291144	      0.00000000	    -14.22745344	      1.92538635	      6.85521686
      3.27000000	     -2.12222479	     -0.53599784	    -88.03480493	     -0.28803152	      0.97217344	     -4.17140805	      3.30217756	      8.92807994	     10.63988263	    -18.08367917	     13.83269322	    -15.34493439	      0.00000000	     27.46431070	     -1.48270137	      0.78375830	    -58.63374449	     -4.32879507	    -36.06347915	      0.00000000	    -14.30054819	      1.92593746	      8.31261708
      3.28000000	     -2.08770250	     -0.64937186	    -88.58912184	     -0.28855081	      0.97145394	     -4.15708505	      2.00373086	      8.85003802	     10.89776864	    -17.74125830	     14.82346638	    -14.57021519	      0.00000000	     28.31715563	     -1.65650711	      0.38179702	    -56.46872781	     -4.19891092	    -36.70159629	      0.00000000	    -14.55599300	      1.74448781	      9.32977235
      3.29000000	     -2.08477308	     -0.79048028	    -89.07858425	     -0.28879301	      0.97059504	     -4.14277488	      0.69669823	      8.77733340	     11.17331454	    -17.45928741	     15.04596927	    -14.37226261	      0.00000000	     29.08675516	     -1.85728707	      0.05219576	    -54.22874384	     -4.17947870	    -36.78154606	      0.00000000	    -14.79724101	      1.55751885	      9.49691879
      3.30000000	     -2.18433297	     -0.92982189	    -89.53414497	     -0.28893034	      0.96939342	     -4.12849189	     -0.60488730	      8.80989264	     11.45350249	    -17.17845077	     16.69343249	    -12.48074157	      0.00000000	     29.78234605	     -2.12417343	     -0.20258874	    -51.86780416	     -3.98867012	    -36.91890605	      0.00000000	    -14.93690991	      1.71066941	     10.56272598
      3.31000000	     -2.29532234	     -1.06661054	    -89.99672509	     -0.28904030	      0.96793676	     -4.11414652	     -1.88006268	      8.84787953	     11.81601380	    -16.95611568	     17.38769739	    -12.43085910	      0.00000000	     30.39332452	     -2.41898201	     -0.42309439	    -49.37050344	     -3.61159524	    -36.86038421	      0.00000000	    -15.14769549	      1.67032210	     11.16833213
      3.32000000	     -2.40670820	     -1.18307863	    -90.44156649	     -0.28903251	      0.96623239	     -4.09977910	     -3.12597284	      8.87660889	     12.20037732	    -16.74179937	     18.18872135	    -12.15213623	      0.00000000	     30.95910943	     -2.71353953	     -0.61431193	    -46.80625723	     -3.13297297	    -36.26253080	      0.00000000	    -15.33040367	      1.69825365	     11.98300810
      3.33000000	     -2.54213657	     -1.25884628	    -90.94310091	     -0.28902917	      0.96428124	     -4.08546020	     -4.31204173	      8.93081157	     12.77961317	    -16.59868652	     19.17183232	    -11.88591902	      0.00000000	     31.49271677	     -3.08285907	     -0.85712126	    -44.19151104	     -2.25360418	    -34.65330554	      0.00000000	    -15.51311977	      1.73576576	     12.76377528
      3.34000000	     -2.64595411	     -1.33445896	    -91.32886741	     -0.28878454	      0.96222456	     -4.07081233	     -5.52027393	      8.92066896	     13.20037723	    -16.42906270	     19.78398903	    -11.27861958	      0.00000000	     31.92723754	     -3.33548150	     -0.97150043	    -41.47812608	      0.21010795	    -31.34050070	      0.00000000	    -15.64960145	      1.78739500	     12.94402304
      3.35000000	     -2.73078501	     -1.34737352	    -91.75943861	     -0.28849664	      0.95993173	     -4.05610676	     -6.63910696	      8.88658097	     13.70679955	    -16.30333532	     20.21617141	    -11.47763090	      0.00000000	     32.33788949	     -3.56703767	     -1.08334596	    -38.66445249	      0.46576219	    -30.18678740	      0.00000000	    -15.73478734	      1.83887794	     13.61277218
      3.36000000	     -2.81110453	     -1.34759735	    -92.17456960	     -0.28824355	      0.95759943	     -4.04135283	     -7.71772178	      8.82815562	     14.15780026	    -16.23494386	     20.95896245	    -11.45956209	      0.00000000	     32.67142648	     -3.78388816	     -1.19993912	    -35.76209546	      2.12750107	    -27.52050283	      0.00000000	    -15.83428147	      1.87700051	     14.17237068
      3.37000000	     -2.85364915	     -1.27345776	    -92.60004248	     -0.28799685	      0.95520187	     -4.02637549	     -8.71525426	      8.72205245	     14.62406531	    -16.18468179	     20.85826832	    -11.17849111	      0.00000000	     32.96930394	     -3.97339500	     -1.21106771	    -32.85589915	      3.23658064	    -24.56982221	      0.00000000	    -15.81915410	      1.77833314	     14.40819547
      3.38000000	     -2.74080730	     -1.13285924	    -93.12642181	     -0.28770987	      0.95276843	     -4.01081292	     -9.64567563	      8.39712867	     15.00058266	    -16.10455362	     21.64397534	    -11.36382622	      0.00000000	     33.16746453	     -4.03751062	     -1.27891034	    -29.92260532	      4.71969985	    -23.29672226	      0.00000000	    -15.58476591	      1.54213988	     15.15769608
      3.39000000	     -2.74663726	     -0.91054963	    -93.44840068	     -0.28737125	      0.95015062	     -3.99592650	    -10.37012748	      8.23561343	     15.05620471	    -16.19683683	     21.72008445	    -10.69888079	      0.00000000	     33.53549674	     -4.13077552	     -1.13819434	    -27.14342679	      6.08274539	    -19.53164782	      0.00000000	    -15.50232338	      1.37856694	     15.25992249
      3.40000000	     -2.61976867	     -0.65357042	    -93.90523402	     -0.28696512	      0.94764885	     -3.98049186	    -11.05271782	      7.86531264	     15.11859227	    -16.30712226	     22.08674407	    -10.35542362	      0.00000000	     33.75470894	     -4.12356881	     -1.03575908	    -24.47160923	      6.93830877	    -17.73657250	      0.00000000	    -15.05618851	      1.30204027	     16.09959367
      3.41000000	     -2.56998344	     -0.30545248	    -94.20868185	     -0.28659576	      0.94490333	     -3.96542738	    -11.51507891	      7.62396635	     14.90368037	    -16.59848842	     22.14524302	     -9.50160754	      0.00000000	     34.09523441	     -4.15650437	     -0.87214392	    -22.06995741	      8.77825214	    -15.36665567	      0.00000000	    -14.69179101	      1.20514952	     15.91601700
      3.42000000	     -2.45568818	      0.02297883	    -94.50382824	     -0.28600235	      0.94228505	     -3.94993698	    -11.99816700	      7.29791705	     14.63524500	    -16.87343892	     22.20146077	     -9.45600183	      0.00000000	     34.33691713	     -4.07333476	     -0.51951965	    -19.79759706	      8.94394459	    -15.07556492	      0.00000000	    -14.35031550	      0.87474535	     16.08808538
      3.43000000	     -2.27822337	      0.39724647	    -94.86543356	     -0.28564663	      0.93978107	     -3.93442892	    -12.31609924	      6.91572120	     14.35705895	    -17.33539110	     22.23362429	     -8.38480939	      0.00000000	     34.55534463	     -3.94474240	     -0.08622367	    -17.63672761	     10.72768399	    -12.54483957	      0.00000000	    -13.93818315	      0.71024780	     17.37649107
      3.44000000	     -2.00524428	      0.76723341	    -95.21189505	     -0.28500791	      0.93741727	     -3.91872289	    -12.58186526	      6.42622925	     14.13694411	    -17.87719055	     22.25303642	     -8.33039911	      0.00000000	     34.75784391	     -3.63352530	      0.64725121	    -15.83954265	     10.83104342	    -12.45631689	      0.00000000	    -13.57986649	      0.22955109	     17.29901812
      3.45000000	     -1.72799386	      1.07814473	    -95.48762472	     -0.28412662	      0.93513345	     -3.90271795	    -12.88034745	      5.93695427	     13.92741265	    -18.48417725	     22.05101729	     -7.79144816	      0.00000000	     34.93391697	     -3.28571118	      0.75705866	    -14.63234010	     11.61793704	    -12.67239821	      0.00000000	    -13.16583251	     -0.10657746	     17.35924045
      3.46000000	     -1.44918959	      1.37001488	    -95.92868709	     -0.28348321	      0.93285791	     -3.88656390	    -13.10573820	      5.40581393	     13.85254061	    -19.24636631	     21.81888832	     -7.16720503	      0.00000000	     35.05418711	     -3.05903611	      0.14651491	    -13.97242603	     11.94841126	    -13.37856726	      0.00000000	    -12.79608559	     -0.52885556	     17.82432853
      3.47000000	     -1.18626362	      1.58381485	    -96.29813737	     -0.28261211	      0.93062597	     -3.86991099	    -13.44186685	      4.90151863	     13.90777585	    -19.98215841	     21.63105892	     -7.01193702	      0.00000000	     35.13904747	     -2.83450772	     -0.74118215	    -13.97309185	     11.88728588	    -13.59081619	      0.00000000	    -12.42149016	     -0.97664328	     17.88766958
      3.48000000	     -1.02249885	      1.72624292	    -96.57848223	     -0.28175447	      0.92830033	     -3.85308011	    -13.82504926	      4.51752438	     13.91481695	    -20.78194750	     21.13976624	     -6.69202465	      0.00000000	     35.17311647	     -2.71120645	     -1.85577633	    -14.61253642	     11.70420476	    -13.72524524	      0.00000000	    -12.09096083	     -1.31592335	     18.08305315
